<svg xmlns="http://www.w3.org/2000/svg" viewBox="0 0 729 323"><defs><style>.cls-1,.cls-2,.cls-6{fill:#fff;}.cls-1{stroke:#ececec;stroke-miterlimit:10;stroke-width:2px;}.cls-1,.cls-5,.cls-6{fill-rule:evenodd;}.cls-3{fill:#020202;}.cls-4,.cls-5{fill:#1d1d1b;}</style></defs><title>Prananatha-logo</title><g id="Layer_2" data-name="Layer 2"><g id="Laag_1" data-name="Laag 1"><path class="cls-1" d="M728,161.73c0-16.12-6.47-31.64-18.38-46.15H515.05a160.55,160.55,0,0,0-307.65,0h-188C7.47,130.09,1,145.61,1,161.73c0,16.74,7,32.82,19.75,47.8H208a160.55,160.55,0,0,0,306.37,0H708.25C721,194.55,728,178.47,728,161.73Z"/><circle class="cls-2" cx="363.22" cy="161.9" r="142.96"/><path class="cls-3" d="M363.65,18.14V23l-7.22.17-7.11.54-7,.89-6.89,1.22-6.78,1.56L322,29.27l-6.5,2.19L309.13,34l-6.21,2.79-6,3.08L291,43.17l-5.69,3.63-5.49,3.88-5.29,4.13-5.08,4.38-4.87,4.62L260,68.65l-4.4,5L251.4,79l-3.9,5.46-3.64,5.66-3.38,5.83-3.09,6-2.8,6.17-2.51,6.32-2.2,6.47-1.89,6.6-1.57,6.74-1.22,6.86-.9,7-.54,7.07-.17,7.18h-4.88l.19-7.41.56-7.32.92-7.21,1.28-7.11,1.62-7,1.95-6.84,2.28-6.7,2.6-6.55L233,99.8l3.21-6.21,3.48-6,3.78-5.85,4-5.65,4.3-5.45,4.55-5.22,4.81-5,5-4.77,5.26-4.53L277,46.78l5.68-4L288.51,39l6.07-3.48,6.25-3.17,6.41-2.89,6.59-2.59,6.73-2.26,6.88-1.94,7-1.61,7.14-1.28,7.25-.91,7.36-.56ZM218.71,162.3h4.88l.17,7.17.54,7.08.9,7,1.22,6.86,1.57,6.74,1.89,6.6,2.2,6.47,2.51,6.32,2.8,6.18,3.09,6,3.38,5.83,3.64,5.66,3.9,5.46,4.17,5.26L260,256l4.63,4.83,4.87,4.62,5.08,4.38,5.29,4.13,5.49,3.88,5.69,3.63,5.86,3.35,6,3.08,6.21,2.79,6.36,2.5,6.5,2.19,6.65,1.88,6.78,1.55,6.89,1.22,7,.89,7.11.54,7.22.17v4.87l-7.45-.19-7.36-.56-7.25-.91-7.14-1.27-7-1.62L320.56,300l-6.73-2.27-6.59-2.59-6.41-2.88-6.25-3.18-6.07-3.48-5.88-3.74-5.68-4-5.48-4.29L266.21,269l-5-4.77-4.81-5L251.82,254l-4.3-5.45-4-5.65L239.7,237l-3.48-6L233,224.79l-2.9-6.38-2.6-6.55-2.28-6.7-1.95-6.85-1.62-7-1.28-7.1-.92-7.22-.56-7.32ZM363.65,306.45v-4.87l7.22-.17,7.11-.54,7-.89,6.89-1.22,6.78-1.55,6.65-1.88,6.5-2.19,6.36-2.5,6.21-2.79,6-3.08,5.86-3.35,5.69-3.63,5.49-3.88,5.29-4.13,5.08-4.38,4.86-4.62,4.64-4.83,4.4-5.06,4.16-5.26,3.91-5.46,3.64-5.66,3.38-5.83,3.09-6,2.8-6.18,2.51-6.32,2.2-6.47,1.89-6.6,1.57-6.74,1.22-6.86.9-7,.54-7.08.17-7.17h4.88l-.19,7.4-.57,7.32-.91,7.22-1.28,7.1-1.62,7-1.95,6.85-2.28,6.7-2.6,6.55-2.9,6.38L491.08,231l-3.49,6-3.77,5.85-4,5.65-4.3,5.45-4.55,5.23-4.81,5-5,4.77-5.26,4.53-5.48,4.29-5.68,4-5.88,3.74-6.07,3.48-6.25,3.18-6.42,2.88-6.58,2.59L406.74,300l-6.88,1.93-7,1.62-7.14,1.27-7.25.91-7.36.56ZM508.59,162.3h-4.88l-.17-7.18-.54-7.07-.9-7-1.22-6.86-1.57-6.74-1.89-6.6-2.2-6.47-2.51-6.32-2.8-6.17-3.09-6-3.38-5.83-3.64-5.66L475.89,79l-4.16-5.26-4.4-5-4.64-4.84-4.86-4.62-5.08-4.38-5.29-4.13L442,46.8l-5.69-3.63-5.86-3.35-6-3.08L418.17,34l-6.36-2.49-6.5-2.19-6.65-1.88-6.78-1.56L385,24.61l-7-.89-7.11-.54L363.65,23V18.14l7.45.19,7.36.56,7.25.91,7.14,1.28,7,1.61,6.88,1.94,6.73,2.26,6.58,2.59,6.42,2.89,6.25,3.17L438.79,39l5.88,3.75,5.68,4,5.48,4.29,5.26,4.53,5,4.77,4.81,5,4.55,5.22,4.3,5.45,4,5.65,3.77,5.85,3.49,6,3.21,6.21,2.9,6.39,2.6,6.55,2.28,6.7,1.95,6.84,1.62,7,1.28,7.11.91,7.21.57,7.32Z"/><path class="cls-4" d="M363.65,18.17V23l-2.77.17-2.72.49-2.7.82-2.69,1.15-2.65,1.47-2.65,1.79-2.6,2.1L342.3,33.4l-2.51,2.71-2.47,3-2.41,3.31L332.57,46l-2.28,3.87L328.1,54,326,58.39,324,63,322,67.86l-1.83,5.06-1.75,5.29-1.63,5.5L315.3,89.4l-1.42,5.88-1.29,6-1.18,6.22-1.05,6.38-.94,6.53-.79,6.68-.65,6.8-.52,6.93-.38,7-.23,7.15-.06,7.25h-4.86L302,155l.23-7.25.38-7.14.52-7,.67-6.91.81-6.77.93-6.64,1.07-6.5,1.2-6.33,1.33-6.17,1.44-6,1.56-5.81,1.67-5.62,1.78-5.42,1.89-5.21,2-5,2.09-4.78,2.19-4.53,2.29-4.3,2.37-4,2.47-3.79,2.56-3.51L336.1,33l2.74-3,2.82-2.65L344.57,25l3-2,3.08-1.7L353.79,20,357,19l3.29-.61ZM301.93,162.3h4.86l.06,7.24.23,7.15.38,7,.52,6.93.65,6.8.79,6.67.94,6.53,1.05,6.38,1.18,6.22,1.29,6.06,1.42,5.88,1.52,5.68,1.63,5.5,1.75,5.29,1.83,5.07,1.94,4.85,2,4.61,2.11,4.38,2.19,4.11,2.28,3.87,2.34,3.58,2.41,3.31,2.47,3,2.51,2.72,2.57,2.42,2.6,2.11,2.65,1.79,2.65,1.47,2.69,1.14,2.7.83,2.72.49,2.77.16v4.81l-3.34-.2-3.29-.6-3.23-1-3.16-1.35-3.08-1.69-3-2-2.91-2.35-2.82-2.65-2.74-3-2.64-3.23-2.56-3.52-2.47-3.79-2.37-4-2.29-4.31-2.19-4.53-2.09-4.77-2-5-1.89-5.22-1.78-5.42-1.67-5.61-1.56-5.82-1.44-6-1.33-6.17-1.2-6.33-1.07-6.49-.93-6.64-.81-6.78-.67-6.91-.52-7-.38-7.15-.23-7.24Zm61.72,144.12v-4.81l2.77-.16,2.72-.49,2.7-.83,2.69-1.14,2.65-1.47,2.65-1.79,2.6-2.11L385,291.2l2.51-2.72,2.47-3,2.41-3.31,2.34-3.58,2.28-3.87,2.19-4.11,2.11-4.38,2-4.61,1.94-4.85,1.83-5.07,1.75-5.29,1.63-5.5L412,235.2l1.42-5.88,1.29-6.06,1.18-6.22,1.05-6.38.94-6.53.78-6.67.66-6.8.52-6.93.38-7,.23-7.15.06-7.24h4.86l-.08,7.34-.23,7.24-.38,7.15-.52,7-.67,6.91-.81,6.78-.93,6.64-1.08,6.49-1.19,6.33-1.33,6.17-1.44,6-1.56,5.82-1.67,5.61-1.78,5.42-1.89,5.22-2,5-2.09,4.77-2.19,4.53L401.24,277l-2.37,4-2.47,3.79-2.56,3.52-2.64,3.23-2.74,3-2.82,2.65-2.91,2.35-3,2-3.08,1.69-3.16,1.35-3.23,1-3.29.6ZM425.37,162.3h-4.86l-.06-7.25-.23-7.15-.38-7-.52-6.93-.66-6.8-.78-6.68-.94-6.53-1.05-6.38-1.18-6.22-1.29-6L412,89.4l-1.52-5.69-1.63-5.5-1.75-5.29-1.83-5.06L403.33,63l-2-4.61L399.2,54,397,49.9,394.73,46l-2.34-3.58L390,39.14l-2.47-3L385,33.4,382.43,31l-2.6-2.1-2.65-1.79-2.65-1.47-2.69-1.15-2.7-.82-2.72-.49L363.65,23V18.17l3.34.2,3.29.61,3.23,1,3.16,1.35,3.08,1.7,3,2,2.91,2.35L388.46,30l2.74,3,2.64,3.24,2.56,3.51,2.47,3.79,2.37,4,2.29,4.3,2.19,4.53,2.09,4.78,2,5,1.89,5.21,1.78,5.42,1.67,5.62,1.56,5.81,1.44,6,1.33,6.17,1.19,6.33,1.08,6.5.93,6.64.81,6.77.67,6.91.52,7,.38,7.14.23,7.25Z"/><path class="cls-4" d="M219.74,162.3h4.81l.16,2.77.49,2.73.83,2.7,1.14,2.69,1.47,2.66,1.78,2.65,2.1,2.61,2.43,2.57,2.71,2.51,3,2.48,3.3,2.41,3.58,2.34,3.86,2.28,4.11,2.2L259.9,200l4.61,2,4.84,1.94,5.06,1.84,5.28,1.74,5.5,1.64,5.67,1.52,5.87,1.42,6,1.3,6.21,1.18,6.37,1,6.52.93,6.66.8,6.79.65,6.92.52,7,.38,7.14.23,7.23.07v4.86l-7.33-.08-7.23-.23-7.14-.38-7-.52-6.9-.68-6.77-.8-6.63-.94-6.48-1.07-6.32-1.2-6.16-1.33-6-1.44-5.81-1.56-5.6-1.68-5.42-1.78-5.21-1.9-5-2-4.77-2.1-4.52-2.19-4.29-2.3-4-2.37-3.79-2.48-3.51-2.56-3.23-2.65-2.95-2.74-2.65-2.82-2.35-2.91-2-3-1.69-3.08-1.35-3.17-1-3.23-.61-3.3Zm143.91,61.81v-4.86l7.23-.07L378,219l7-.38,6.92-.52,6.79-.65,6.66-.8,6.52-.93,6.37-1,6.21-1.18,6.05-1.3,5.87-1.42,5.67-1.52,5.5-1.64,5.28-1.74L458,204l4.84-1.94,4.61-2,4.37-2.12,4.11-2.2,3.86-2.28,3.57-2.34,3.31-2.41,3-2.48,2.71-2.51,2.42-2.57,2.11-2.61,1.78-2.65,1.47-2.66,1.14-2.69.83-2.7.49-2.73.16-2.77h4.81l-.2,3.34-.61,3.3-1,3.23-1.35,3.17-1.69,3.08-2,3-2.35,2.91-2.65,2.82-2.95,2.74-3.23,2.65L486,195.09l-3.79,2.48-4,2.37-4.29,2.3-4.53,2.19-4.76,2.1-5,2-5.21,1.9L449,212.2l-5.6,1.68-5.81,1.56-6,1.44-6.16,1.33-6.32,1.2-6.48,1.07-6.63.94-6.77.8-6.9.68-7,.52-7.14.38L371,224ZM507.56,162.3h-4.81l-.16-2.77-.49-2.73-.83-2.71-1.14-2.69-1.47-2.66-1.78-2.65-2.11-2.6-2.42-2.58-2.71-2.51-3-2.48-3.31-2.41-3.57-2.34-3.86-2.28-4.11-2.2-4.37-2.11-4.61-2L458,120.61l-5.06-1.83L447.61,117l-5.5-1.64-5.67-1.52-5.87-1.42-6.05-1.29L418.31,110l-6.37-1.06-6.52-.93-6.66-.79-6.79-.66-6.92-.52-7-.38-7.14-.23-7.23-.06v-4.87l7.33.09,7.23.23,7.14.37,7,.53,6.9.67,6.77.81,6.63.93,6.48,1.07,6.32,1.2,6.16,1.33,6,1.44,5.81,1.57,5.6,1.67,5.41,1.78,5.21,1.9,5,2,4.76,2.11,4.53,2.19,4.29,2.29,4,2.37L486,129.5l3.51,2.56,3.23,2.65,2.95,2.74,2.65,2.82,2.35,2.92,2,3,1.69,3.09,1.35,3.16,1,3.24.61,3.3ZM363.65,100.48v4.87l-7.23.06-7.14.23-7,.38-6.92.52-6.79.66-6.66.79-6.52.93L309,110l-6.21,1.18-6,1.29-5.87,1.42-5.67,1.52-5.5,1.64-5.28,1.75-5.06,1.83-4.84,1.94-4.61,2-4.37,2.11-4.11,2.2-3.86,2.28L244,133.51l-3.3,2.41-3,2.48L235,140.91l-2.43,2.58-2.1,2.6-1.78,2.65-1.47,2.66L226,154.09l-.83,2.71-.49,2.73-.16,2.77h-4.81l.2-3.34.61-3.3,1-3.24,1.35-3.16,1.69-3.09,2-3,2.35-2.92,2.65-2.82,2.95-2.74,3.23-2.65,3.51-2.56,3.79-2.48,4-2.37,4.29-2.29,4.52-2.19,4.77-2.11,5-2,5.21-1.9,5.42-1.78,5.6-1.67,5.81-1.57,6-1.44,6.16-1.33,6.32-1.2,6.48-1.07,6.63-.93,6.77-.81,6.9-.67,7-.53,7.14-.37,7.23-.23Z"/><rect class="cls-4" x="360.22" y="21.57" width="4.86" height="282.47"/><path class="cls-4" d="M363.65,18.15V23l-4.86.17L354,23.7l-4.71.87-4.65,1.2-4.58,1.54-4.48,1.84-4.4,2.16-4.3,2.47-4.2,2.76-4.11,3-4,3.33-3.87,3.6L307,50.38l-3.61,4.11-3.47,4.37-3.33,4.6-3.18,4.84-3,5.06-2.85,5.25-2.69,5.48-2.5,5.66L280,95.6l-2.12,6L276,107.82l-1.72,6.35-1.52,6.49-1.3,6.64-1.08,6.77L269.5,141l-.61,7-.38,7.11-.12,7.22h-4.8l.13-7.37.38-7.28.63-7.18.87-7.06,1.1-6.94,1.33-6.81,1.56-6.68,1.77-6.52,2-6.37,2.18-6.19,2.39-6L280.5,82l2.76-5.64L286.21,71l3.12-5.23,3.29-5,3.46-4.79,3.62-4.54,3.77-4.3,3.91-4,4.06-3.77,4.19-3.5,4.31-3.21,4.45-2.92L329,27l4.67-2.3,4.79-2,4.87-1.63,5-1.3,5.06-.93,5.14-.56ZM263.59,162.3h4.81l.11,7.21.38,7.11.61,7,.85,6.89,1.08,6.77,1.3,6.64,1.52,6.49,1.72,6.35,1.93,6.2,2.12,6,2.32,5.85,2.5,5.67,2.69,5.47,2.85,5.26,3,5.05,3.18,4.84,3.33,4.6,3.47,4.37,3.61,4.11,3.74,3.87,3.87,3.6,4,3.33,4.11,3,4.2,2.77,4.3,2.46,4.4,2.16,4.48,1.85,4.58,1.53,4.65,1.2,4.71.87,4.78.53,4.86.18v4.84l-5.19-.19-5.14-.57-5.06-.93-5-1.29-4.87-1.63-4.79-2L329,297.56l-4.57-2.62L319.94,292l-4.31-3.22-4.19-3.5-4.06-3.77-3.91-4-3.77-4.31-3.62-4.54-3.46-4.78-3.29-5-3.12-5.23-2.95-5.45-2.76-5.64-2.58-5.84-2.39-6-2.18-6.2-2-6.36-1.77-6.52L268,204.94l-1.33-6.81-1.1-6.94-.87-7.07L264.1,177l-.38-7.29-.13-7.36ZM363.65,306.44V301.6l4.85-.18,4.79-.53L378,300l4.65-1.2,4.58-1.53,4.48-1.85,4.4-2.16,4.3-2.46,4.2-2.77,4.11-3,4-3.33,3.87-3.6,3.74-3.87,3.61-4.11,3.47-4.37,3.33-4.6,3.18-4.84,3-5.05,2.85-5.26,2.69-5.47,2.5-5.67,2.31-5.85,2.13-6,1.93-6.2,1.72-6.35,1.52-6.49,1.3-6.64,1.08-6.77.85-6.89.61-7,.38-7.11.11-7.21h4.81l-.13,7.36L463.2,177l-.63,7.17-.87,7.07-1.1,6.94-1.33,6.81-1.56,6.68-1.78,6.52-2,6.36-2.18,6.2-2.39,6-2.58,5.84L444,248.19l-3,5.45L438,258.87l-3.3,5-3.45,4.78-3.62,4.54-3.77,4.31-3.91,4-4.06,3.77-4.19,3.5L407.36,292l-4.45,2.91-4.57,2.62-4.68,2.29-4.78,2L384,303.46l-5,1.29-5.06.93-5.14.57ZM463.71,162.3h-4.8l-.12-7.22-.38-7.11-.61-7-.85-6.89-1.08-6.77-1.3-6.64-1.52-6.49-1.72-6.35-1.93-6.19-2.13-6L445,89.75l-2.5-5.66-2.69-5.48-2.85-5.25-3-5.06-3.18-4.84-3.33-4.6-3.47-4.37-3.61-4.11-3.74-3.87-3.87-3.6-4-3.33-4.11-3-4.2-2.76-4.3-2.47-4.4-2.16-4.48-1.84-4.58-1.54L378,24.57l-4.71-.87-4.79-.53L363.65,23V18.15l5.19.2,5.14.56,5.06.93,5,1.3,4.88,1.63,4.78,2,4.68,2.3,4.57,2.61,4.45,2.92,4.31,3.21,4.19,3.5,4.06,3.77,3.91,4,3.77,4.3,3.62,4.54,3.45,4.79,3.3,5L441.09,71l3,5.45L446.8,82l2.58,5.84,2.39,6,2.18,6.19,2,6.37,1.78,6.52,1.56,6.68,1.33,6.81,1.1,6.94.87,7.06.63,7.18.38,7.28.13,7.37Z"/><path class="cls-4" d="M219.71,162.3h4.86l.18,5.76.53,5.67.88,5.6,1.21,5.5,1.53,5.42,1.86,5.31,2.18,5.2,2.47,5.09,2.77,5,3.06,4.83,3.33,4.7,3.6,4.55,3.87,4.42,4.12,4.25,4.36,4.08,4.6,3.92,4.82,3.72,5.05,3.55,5.25,3.34,5.46,3.16,5.64,2.94,5.84,2.71,6,2.5,6.16,2.26,6.33,2,6.48,1.77,6.62,1.53,6.74,1.26,6.88,1,7,.72,7.09.45,7.19.14v4.86l-7.38-.15L349,278.9l-7.18-.74-7.06-1-6.95-1.3L321,274.27l-6.67-1.84-6.52-2.08L301.42,268l-6.19-2.57-6-2.81-5.84-3-5.64-3.25-5.44-3.48-5.22-3.66-5-3.88-4.77-4.05L252.76,237l-4.28-4.42-4-4.59-3.75-4.76-3.49-4.91L234,213.29l-2.9-5.2-2.6-5.34-2.27-5.46-2-5.58-1.62-5.7-1.28-5.79-.93-5.9-.55-6ZM363.65,279.5v-4.86l7.19-.14,7.09-.45,7-.72,6.88-1,6.74-1.26,6.62-1.53,6.48-1.77,6.33-2,6.16-2.26,6-2.5,5.84-2.71,5.64-2.94,5.46-3.16,5.25-3.34,5.05-3.55,4.82-3.72,4.6-3.92,4.36-4.08,4.12-4.25,3.86-4.42,3.61-4.55,3.33-4.7,3.06-4.83,2.77-5,2.47-5.09,2.18-5.2,1.85-5.31,1.54-5.42,1.21-5.5.87-5.6.54-5.67.18-5.76h4.85l-.19,6-.56,6-.92,5.9L504.63,186l-1.63,5.7-1.95,5.58-2.27,5.46-2.6,5.34-2.9,5.2-3.2,5.06-3.48,4.91L482.84,228l-4,4.59L474.54,237,470,241.28l-4.77,4.05-5,3.88L455,252.87l-5.44,3.48-5.64,3.25-5.84,3-6,2.81L425.88,268l-6.38,2.34L413,272.43l-6.67,1.84-6.81,1.56-6.95,1.3-7.06,1-7.18.74-7.28.45ZM507.58,162.3h-4.85l-.18-5.77-.54-5.67-.87-5.59-1.21-5.51-1.54-5.41L496.54,129l-2.18-5.2-2.47-5.09-2.77-5-3.06-4.84-3.33-4.7-3.61-4.55-3.86-4.42L471.14,91l-4.36-4.08L462.18,83l-4.82-3.73-5.05-3.55-5.25-3.34-5.46-3.15L436,66.32l-5.84-2.72-6-2.5L418,58.84l-6.33-2L405.14,55l-6.62-1.53-6.74-1.26-6.88-1-7-.72-7.09-.44L363.65,50V45.09l7.38.16,7.28.44,7.18.74,7.06,1,6.95,1.3,6.81,1.57L413,52.16l6.52,2.08,6.38,2.34,6.19,2.57,6,2.81,5.84,3,5.64,3.24L455,71.72l5.22,3.66,5,3.88,4.77,4,4.54,4.25L478.82,92l4,4.59,3.76,4.76,3.48,4.91,3.2,5.07,2.9,5.19,2.6,5.34,2.27,5.46,1.95,5.58,1.63,5.7,1.28,5.79.92,5.9.56,6ZM363.65,45.09V50l-7.19.14-7.09.44-7,.72-6.88,1-6.74,1.26L322.16,55l-6.48,1.78-6.33,2-6.16,2.26-6,2.5-5.84,2.72-5.64,2.94-5.46,3.15L275,75.75l-5.05,3.55L265.12,83l-4.6,3.91L256.16,91,252,95.27l-3.87,4.42-3.6,4.55-3.33,4.7-3.06,4.84-2.77,5-2.47,5.09-2.18,5.2-1.86,5.31-1.53,5.41-1.21,5.51-.88,5.59-.53,5.67-.18,5.77h-4.86l.2-6.05.55-6,.93-5.9,1.28-5.79,1.62-5.7,2-5.58,2.27-5.46,2.6-5.34,2.9-5.19,3.19-5.07,3.49-4.91,3.75-4.76,4-4.59,4.28-4.42,4.54-4.25,4.77-4,5-3.88,5.22-3.66,5.44-3.48L283.38,65l5.84-3,6-2.81,6.19-2.57,6.38-2.34,6.52-2.08L321,50.33l6.81-1.57,6.95-1.3,7.06-1,7.18-.74,7.28-.44Z"/><path class="cls-5" d="M301.69,36c3.79,8.87,8.13,17.89,9.14,26.07,1.48,12.1,4.27,9.89-6.79,15L297,80.28c-2.24,2.67-1.58,5.92-.5,9.26a79.25,79.25,0,0,0,10,11.76c2.8-1,6.34-2.49,9.49-8,4.06-7.09,1.41-10.77,8.82-3.89,4.36,4,8.25,8.33,12.09,12.64l-7.23,7.75q-6,.63-7,3.25c-12.25,12-25.05,23.91-42.61,35.28a95.33,95.33,0,0,1-22.17-8.76c-6.92,4-9.2,8.59-10.06,13.39-1.17,6.51-.53,8.43,3.7,13.37A57.17,57.17,0,0,0,263,176.47c7.88,5.39,5.24,7.25,7.09,17.14-8.82-7.11-17.15-17.74-25.92-28.11-4.82-5.72-5.52-7.15-6.14-14.54q-2-24.09-4.07-48.16c8.29-15.27,18.82-28.31,29.15-41.53C275.65,49.84,288.46,40.79,301.69,36"/><path class="cls-5" d="M339.9,51.64c-2.72,2.8,1,8.07,3.27,11.25,1.22,1.73,5.3-.1,6.07,1.88,2,5.25.25,11.31,1.16,16.87.28,1.66.92,5.35,2.34,4.46,7.64-4.85,16.69-10,19.84-18.52,1.78-4.77-4-10-8.17-12.9-3.34-2.31-8.1-.67-12.14-1.17s-9.47-4.87-12.37-1.87"/><path class="cls-5" d="M383.92,22.74c-3.83,7,12.11,7.9,16.93,16.29,3.5,6.1,13.35,5.91,17.95,11.23,1.7,2-3,4.91-5.48,5.5-3.44.81-9-5-10.46-1.75-2.48,5.49.58,12.37,3.24,17.76,1.53,3.11,5.07,5.33,8.47,6,4.67.93,9.7,0,14.2-1.5,1.22-.42-.21-4.23,1-3.76A5.8,5.8,0,0,1,433.26,78c-1.05,8-6.17,15.21-7.23,23.27-1.29,9.75-1.24,21.79.25,29.52,1,5.35,12.37-1.35,15.2-6s-2.85-10.53-2-15.76c.48-3,2.83-6.17,5.73-7,6.46-1.88,13.53.5,20.18-.5,4-.6,7.55-5.86,11.21-4.26,4,1.76,2.56,9,6,11.76,4.18,3.36,16.81,10.38,15.2,5.25-5.35-17-16.24-32.25-27.9-45.78C452.51,48.37,430.05,36,407.34,27.24c-7.42-2.85-22.3-7.08-23.42-4.5"/><path class="cls-5" d="M446.61,123.62s-14.45,20-14.7,21.46c-1.57.7-7.16,25.54-5.23,26.7,4.12,8.73,1.74,17.15,4.24,22.7a29.29,29.29,0,0,0,16.94,8.24c7-.4,11.44-9.52,18.43-10.23,6.49-3.08,11,1.44,13.45,7,2.53,2.5,4.31,6.48,3.74,10-.07,11.14-8.08,17.3-9.47,25.2,2.27,1.35,6.75,10.59,6.48,10a142.1,142.1,0,0,0,23.42-51.14c4-17.51,5.33-36.53.75-53.9-2.85-10.78-11.84-20.24-21.68-25.45-3.74-2-4.69,7.57-8.47,9.48s-8.45,1.25-12.7,1.25c-5.09,0-10.13-.83-15.2-1.25"/><path class="cls-5" d="M284.18,198a115.27,115.27,0,0,0-14.7,28.44c6.72,10.48,13.94,20.63,24.66,28.44,8.56,0,8.64,7.06,7.73,13.23,1.24,7.07,6.47,13.14,7.72,20.21,12.1-2.82,26.08-3.85,36.08-13a15.91,15.91,0,0,1,7.52-4.19c7.64-1.83,13.45-6.4,18.43-12.22q10-10.74,12-20.46c-12.73-3.62-24.64-5.87-39.61-13.23a104,104,0,0,1-21.68-15L284.18,198"/><rect class="cls-4" x="219.65" y="161.5" width="286" height="2.61"/><path class="cls-6" d="M3.25,161.76c0,16.56,6.89,32.48,19.54,47.31H703c12.65-14.83,19.54-30.75,19.54-47.31,0-16-6.4-31.32-18.19-45.68H21.44C9.65,130.44,3.25,145.8,3.25,161.76Z"/><polygon class="cls-5" points="109.69 135.35 109.69 140.82 158.91 140.82 158.91 162.7 109.69 162.7 109.69 168.16 136.43 168.16 156.68 190.03 164.07 190.03 144.26 168.66 143.73 168.16 158.91 168.16 164.38 168.16 164.38 162.7 164.38 140.82 164.38 135.35 158.91 135.35 109.69 135.35"/><path class="cls-4" d="M107.88,135.35v-1.81h1.81Zm0,0,1.81-1.81h49.22v3.62H109.69Zm51-1.81h5.47v3.62h-5.47Zm5.47,0h1.81v1.81Zm0,0,1.81,1.81v5.47h-3.62v-5.47Zm1.81,7.28h0V162.7h-3.62V140.82Zm0,21.88h0v5.47h-3.62V162.7Zm0,5.47V170h-1.81Zm0,0-1.81,1.8h-5.47v-3.61h5.47Zm-7.28,1.8H143.73v-3.61h15.18Zm-16.41-.48-3.36-3.13h4.59Zm1.23-3.13,1.23.48.53.5L143,170l-.53-.49Zm1.76,1,0,0,0,.05Zm0,0,.09.09,19.81,21.37-2.64,2.46-19.81-21.37Zm19.9,21.46,2.81,3h-4.13Zm0,0-1.32,3h-7.39v-3.6h7.39Zm-8.71,3h-.78l-.54-.57Zm0,0-1.32-.57-20.25-21.87,2.64-2.45L158,188.81Zm-20.25-25.47h.78l.54.58Zm1.32.58-1.32,3H109.69v-3.61h26.74Zm-28.06,3h-1.81v-1.8Zm0,0-1.81-1.8V162.7h3.61v5.47Zm-1.81-7.27v-1.81h1.81Zm0,0,1.81-1.81h49.22v3.61H109.69Zm52.84,0v1.8h-1.81Zm-1.81,1.8-1.81-1.8V140.82h3.62V162.7Zm0-25.49h1.81v1.81Zm1.81,1.81-1.81,1.81H109.69V139h49.22Zm-51,1.81h-1.81v-1.81Zm0,0-1.81-1.81v-5.47h3.61v5.47Z"/><polygon class="cls-5" points="634.73 135.35 634.73 140.82 634.73 162.7 634.73 168.17 634.73 190.04 640.2 190.04 640.2 168.17 678.48 168.17 678.48 162.7 640.2 162.7 640.2 140.82 683.95 140.82 683.95 190.04 689.42 190.04 689.42 140.82 689.42 135.35 683.95 135.35 640.2 135.35 634.73 135.35"/><path class="cls-4" d="M632.92,135.35v-1.81h1.81Zm0,0,1.81-1.81h5.47v3.62h-5.47Zm7.28-1.81H684v3.62H640.2Zm43.75,0h5.47v3.62H684Zm5.47,0h1.81v1.81Zm0,0,1.81,1.81v5.47h-3.62v-5.47Zm1.81,7.28h0V190h-3.62V140.82Zm0,49.22v1.81h-1.81Zm0,0-1.81,1.81H684v-3.62h5.47ZM684,191.85h-1.81V190Zm0,0L682.14,190V140.82h3.62V190ZM684,139h1.81v1.81Zm1.81,1.81L684,142.63H640.2V139H684Zm-47.37,0V139h1.81ZM640.2,139l1.8,1.81V162.7h-3.61V140.82Zm0,25.5h-1.81V162.7Zm-1.81-1.81,1.81-1.81h38.28v3.62H640.2Zm40.09-1.81h1.81v1.81Zm0,0,1.81,1.81v5.47h-3.62V162.7Zm1.81,7.28V170h-1.81Zm0,0L678.48,170H640.2v-3.62h38.28Zm-41.9,0v-1.81h1.81Zm1.81-1.81,1.8,1.81V190h-3.61V168.17ZM642,190v1.81h-1.8Zm0,0-1.8,1.81h-5.47v-3.62h5.47Zm-7.27,1.81h-1.81V190Zm0,0L632.92,190V168.17h3.62V190Zm-1.81-23.68h0V162.7h3.62v5.47Zm0-5.47h0V140.82h3.62V162.7Zm0-21.88h0v-5.47h3.62v5.47Z"/><path class="cls-5" d="M44.06,168.17H98.75V135.35H38.59V190h5.47Zm0-27.35H93.28V162.7H44.06Z"/><path class="cls-4" d="M42.25,168.17v-1.81h1.81Zm1.81-1.81,1.8,1.81V190H42.25V168.17ZM45.86,190v1.81h-1.8Zm0,0-1.8,1.81H38.59v-3.62h5.47Zm-7.27,1.81H36.78V190Zm0,0L36.78,190V135.35h3.61V190Zm-1.81-56.5v-1.81h1.81Zm0,0,1.81-1.81h5.47v3.62H38.59Zm7.28-1.81H93.28v3.62H44.06Zm49.22,0h5.47v3.62H93.28Zm5.47,0h1.81v1.81Zm0,0,1.81,1.81v5.47H96.94v-5.47Zm1.81,7.28h0V162.7H96.94V140.82Zm0,21.88h0v5.47H96.94V162.7Zm0,5.47V170H98.75Zm0,0L98.75,170H93.28v-3.62h5.47ZM93.28,170H44.06v-3.62H93.28Zm-51-29.16V139h1.81ZM44.06,139l1.8,1.81V162.7H42.25V140.82Zm0,25.5H42.25V162.7Zm-1.81-1.81,1.81-1.81H93.28v3.62H44.06Zm52.84,0v1.81H93.28Zm-1.81,1.81-1.81-1.81V140.82h3.62V162.7Zm0-25.5h1.81v1.81Zm1.81,1.81-1.81,1.81H44.06V139H93.28Z"/><polygon class="cls-5" points="175.31 135.35 175.31 140.82 175.31 162.7 175.31 168.17 175.31 190.04 180.78 190.04 180.78 168.17 219.07 168.17 219.07 162.7 180.78 162.7 180.78 140.82 224.54 140.82 224.54 190.04 230.01 190.04 230.01 140.82 230.01 135.35 224.54 135.35 180.78 135.35 175.31 135.35"/><path class="cls-4" d="M173.51,135.35v-1.81h1.8Zm0,0,1.8-1.81h5.47v3.62h-5.47Zm7.27-1.81h43.76v3.62H180.78Zm43.76,0H230v3.62h-5.47Zm5.47,0h1.81v1.81Zm0,0,1.81,1.81v5.47H228.2v-5.47Zm1.81,7.28h0V190H228.2V140.82Zm0,49.22v1.81H230Zm0,0L230,191.85h-5.47v-3.62H230Zm-7.28,1.81h-1.81V190Zm0,0L222.73,190V140.82h3.62V190Zm0-52.84h1.81v1.81Zm1.81,1.81-1.81,1.81H180.78V139h43.76Zm-47.37,0V139h1.8Zm1.8-1.81,1.81,1.81V162.7H179V140.82Zm0,25.5H179V162.7ZM179,162.7l1.8-1.81h38.29v3.62H180.78Zm40.09-1.81h1.81v1.81Zm0,0,1.81,1.81v5.47h-3.62V162.7Zm1.81,7.28V170h-1.81Zm0,0L219.07,170H180.78v-3.62h38.29Zm-41.9,0v-1.81h1.8Zm1.8-1.81,1.81,1.81V190H179V168.17ZM182.59,190v1.81h-1.81Zm0,0-1.81,1.81h-5.47v-3.62h5.47Zm-7.28,1.81h-1.8V190Zm0,0-1.8-1.81V168.17h3.61V190Zm-1.8-23.68h0V162.7h3.61v5.47Zm0-5.47h0V140.82h3.61V162.7Zm0-21.88h0v-5.47h3.61v5.47Z"/><polygon class="cls-5" points="290.17 135.35 290.17 182.27 247.1 135.89 246.73 135.48 246.61 135.35 246.41 135.35 245.25 135.35 240.94 135.35 240.94 190.04 246.41 190.04 246.41 143.1 289.88 189.92 290.01 190.04 290.17 190.04 295.64 190.04 295.64 135.35 290.17 135.35"/><path class="cls-4" d="M288.37,135.35v-1.81h1.8Zm0,0,1.8-1.81h5.47v3.62h-5.47Zm7.27-1.81h1.81v1.81Zm0,0,1.81,1.81V190h-3.62V135.35Zm1.81,56.5v1.81h-1.81Zm0,0-1.81,1.81h-5.47v-3.62h5.47Zm-7.3-1.8h0Zm0,0v3.62H290l0-3.61h.18Zm-.15,3.62h-.75l-.53-.53Zm0,0-1.28-.53-.13-.12,2.54-2.56.13.13Zm-1.41-.65-.05,0h0Zm0,0-.05,0-43.47-46.82,2.65-2.45,43.46,46.81Zm-44-48.09V138.5l3.13,3.38Zm3.13-1.23.48,1.23V190h-3.61V143.11Zm.48,48.16v1.81h-1.81Zm0,0-1.81,1.81h-5.47v-3.62h5.47Zm-7.28,1.81h-1.8V190Zm0,0-1.8-1.81V135.35h3.61V190Zm-1.8-56.5v-1.81h1.8Zm0,0,1.8-1.81h4.31v3.62h-4.31Zm6.11-1.81h1.16v3.62h-1.16Zm1.17,3.61h0Zm0,0v-3.61h.19v3.6h-.2Zm.19-3.61h.8l.54.6Zm0,0,1.34.59.12.13-2.67,2.42-.12-.13Zm-1.2,3.16v0l.24.27Zm0,0,2.66-2.44.37.41-2.64,2.46-.38-.41Zm3-2h0L291.49,181l-2.64,2.46-43.07-46.38ZM292,182.27v4.59l-3.12-3.36Zm-3.12,1.23-.48-1.23V135.35H292v46.92Z"/><polygon class="cls-5" points="503.47 135.35 503.47 140.82 528.08 140.82 528.08 190.04 533.55 190.04 533.55 140.82 558.16 140.82 558.16 135.35 503.47 135.35"/><path class="cls-4" d="M501.66,135.35v-1.81h1.81Zm0,0,1.81-1.81h54.69v3.62H503.47Zm56.5-1.81H560v1.81Zm0,0,1.81,1.81v5.47h-3.62v-5.47Zm1.81,7.28v1.81h-1.81Zm0,0-1.81,1.81H533.55V139h24.61Zm-28.23,0V139h1.81Zm1.81-1.81,1.81,1.81V190h-3.62V140.82Zm1.81,51v1.81h-1.81Zm0,0-1.81,1.81h-5.47v-3.62h5.47Zm-7.28,1.81h-1.81V190Zm0,0L526.27,190V140.82h3.62V190Zm0-52.84h1.81v1.81Zm1.81,1.81-1.81,1.81H503.47V139h24.61Zm-26.42,1.81h-1.81v-1.81Zm0,0-1.81-1.81v-5.47h3.61v5.47Z"/><polygon class="cls-5" points="569.1 135.35 569.1 162.7 569.1 168.17 569.1 190.04 574.56 190.04 574.56 168.17 618.32 168.17 618.32 190.04 623.79 190.04 623.79 168.17 623.79 162.7 623.79 135.35 618.32 135.35 618.32 162.7 574.56 162.7 574.56 135.35 569.1 135.35"/><path class="cls-4" d="M567.29,135.35v-1.81h1.81Zm0,0,1.81-1.81h5.46v3.62H569.1Zm7.27-1.81h1.81v1.81Zm0,0,1.81,1.81V162.7h-3.61V135.35Zm0,31h-1.8V162.7Zm-1.8-1.81,1.8-1.81h43.76v3.62H574.56Zm47.37,0v1.81h-1.81Zm-1.81,1.81-1.81-1.81V135.35h3.62V162.7Zm-1.81-29.16v-1.81h1.81Zm0,0,1.81-1.81h5.47v3.62h-5.47Zm7.28-1.81h1.81v1.81Zm0,0,1.81,1.81V162.7H622V135.35Zm1.81,29.16h0v5.47H622V162.7Zm0,5.47h0V190H622V168.17Zm0,21.87v1.81h-1.81Zm0,0-1.81,1.81h-5.47v-3.62h5.47Zm-7.28,1.81h-1.81V190Zm0,0L616.51,190V168.17h3.62V190Zm0-25.49h1.81v1.81Zm1.81,1.81L618.32,170H574.56v-3.62h43.76Zm-47.37,0v-1.81h1.8Zm1.8-1.81,1.81,1.81V190h-3.61V168.17ZM576.37,190v1.81h-1.81Zm0,0-1.81,1.81H569.1v-3.62h5.46Zm-7.27,1.81h-1.81V190Zm0,0L567.29,190V168.17h3.61V190Zm-1.81-23.68h0V162.7h3.61v5.47Zm0-5.47h0V135.35h3.61V162.7Z"/><polygon class="cls-5" points="306.19 135.35 306.19 140.82 306.19 162.7 306.19 168.17 306.19 190.04 311.66 190.04 311.66 168.17 349.94 168.17 349.94 162.7 311.66 162.7 311.66 140.82 355.41 140.82 355.41 190.04 360.88 190.04 360.88 140.82 360.88 135.35 355.41 135.35 311.66 135.35 306.19 135.35"/><path class="cls-4" d="M304.38,135.35v-1.81h1.81Zm0,0,1.81-1.81h5.47v3.62h-5.47Zm7.28-1.81h43.75v3.62H311.66Zm43.75,0h5.47v3.62h-5.47Zm5.47,0h1.81v1.81Zm0,0,1.81,1.81v5.47h-3.62v-5.47Zm1.81,7.28h0V190h-3.62V140.82Zm0,49.22v1.81h-1.81Zm0,0-1.81,1.81h-5.47v-3.62h5.47Zm-7.28,1.81H353.6V190Zm0,0L353.6,190V140.82h3.62V190Zm0-52.84h1.81v1.81Zm1.81,1.81-1.81,1.81H311.66V139h43.75Zm-47.37,0V139h1.81Zm1.81-1.81,1.81,1.81V162.7h-3.62V140.82Zm0,25.5h-1.81V162.7Zm-1.81-1.81,1.81-1.81h38.28v3.62H311.66Zm40.09-1.81h1.81v1.81Zm0,0,1.81,1.81v5.47h-3.62V162.7Zm1.81,7.28V170h-1.81Zm0,0L349.94,170H311.66v-3.62h38.28Zm-41.9,0v-1.81h1.81Zm1.81-1.81,1.81,1.81V190h-3.62V168.17ZM313.47,190v1.81h-1.81Zm0,0-1.81,1.81h-5.47v-3.62h5.47Zm-7.28,1.81h-1.81V190Zm0,0L304.38,190V168.17H308V190Zm-1.81-23.68h0V162.7H308v5.47Zm0-5.47h0V140.82H308V162.7Zm0-21.88h0v-5.47H308v5.47Z"/><polygon class="cls-5" points="420.86 135.35 420.86 182.27 377.79 135.89 377.42 135.48 377.3 135.35 377.11 135.35 375.94 135.35 371.64 135.35 371.64 190.04 377.11 190.04 377.11 143.1 420.57 189.92 420.7 190.04 420.86 190.04 426.33 190.04 426.33 135.35 420.86 135.35"/><path class="cls-4" d="M419.06,135.35v-1.81h1.8Zm0,0,1.8-1.81h5.47v3.62h-5.47Zm7.27-1.81h1.81v1.81Zm0,0,1.81,1.81V190h-3.62V135.35Zm1.81,56.5v1.81h-1.81Zm0,0-1.81,1.81h-5.47v-3.62h5.47Zm-7.3-1.8h0Zm0,0v3.62h-.16l0-3.61h.18Zm-.15,3.62H420l-.53-.53Zm0,0-1.28-.53-.13-.12,2.54-2.56.13.13Zm-1.41-.65-.05,0h0Zm0,0-.05,0-43.47-46.82,2.65-2.45,43.46,46.81Zm-44-48.09V138.5l3.13,3.38Zm3.13-1.23.49,1.23V190H375.3V143.11Zm.49,48.16v1.81h-1.81Zm0,0-1.81,1.81h-5.47v-3.62h5.47Zm-7.28,1.81h-1.81V190Zm0,0L369.83,190V135.35h3.62V190Zm-1.81-56.5v-1.81h1.81Zm0,0,1.81-1.81h4.3v3.62h-4.3Zm6.11-1.81h1.17v3.62h-1.17Zm1.17,3.61h0Zm0,0v-3.61h.19v3.6h-.19Zm.18-3.61h.8l.54.59Zm0,0,1.34.58.12.14-2.67,2.43-.12-.13Zm-1.19,3.16h0l-.05-.06Zm0,0,2.66-2.45.38.41-2.65,2.46-.37-.41Zm3-2h0L422.18,181l-2.64,2.46-43.07-46.38Zm43.54,47.61v4.59l-3.12-3.36Zm-3.12,1.23-.48-1.23V135.35h3.6v46.92Z"/><polygon class="cls-5" points="437.47 135.35 437.47 140.82 437.47 162.7 437.47 168.17 437.47 190.04 442.94 190.04 442.94 168.17 481.23 168.17 481.23 162.7 442.94 162.7 442.94 140.82 486.69 140.82 486.69 190.04 492.17 190.04 492.17 140.82 492.17 135.35 486.69 135.35 442.94 135.35 437.47 135.35"/><path class="cls-4" d="M435.66,135.35v-1.81h1.81Zm0,0,1.81-1.81h5.47v3.62h-5.47Zm7.28-1.81H486.7v3.62H442.94Zm43.76,0h5.47v3.62H486.7Zm5.47,0H494v1.81Zm0,0,1.8,1.81v5.47h-3.61v-5.47Zm1.8,7.28h0V190h-3.61V140.82ZM494,190v1.81h-1.8Zm0,0-1.8,1.81H486.7v-3.62h5.47Zm-7.27,1.81h-1.81V190Zm0,0L484.89,190V140.82h3.61V190Zm0-52.84h1.8v1.81Zm1.8,1.81-1.8,1.81H442.94V139H486.7Zm-47.37,0V139h1.81Zm1.81-1.81,1.81,1.81V162.7h-3.62V140.82Zm0,25.5h-1.81V162.7Zm-1.81-1.81,1.81-1.81h38.29v3.62H442.94Zm40.1-1.81H483v1.81Zm0,0L483,162.7v5.47h-3.62V162.7Zm1.81,7.28V170h-1.81Zm0,0L481.23,170H442.94v-3.62h38.29Zm-41.91,0v-1.81h1.81Zm1.81-1.81,1.81,1.81V190h-3.62V168.17ZM444.75,190v1.81h-1.81Zm0,0-1.81,1.81h-5.47v-3.62h5.47Zm-7.28,1.81h-1.81V190Zm0,0L435.66,190V168.17h3.62V190Zm-1.81-23.68h0V162.7h3.62v5.47Zm0-5.47h0V140.82h3.62V162.7Zm0-21.88h0v-5.47h3.62v5.47Z"/></g></g></svg>